<svg width="60" height="60" viewBox="0 0 60 60" fill="none" xmlns="http://www.w3.org/2000/svg">
<path d="M55 30C55 43.8063 43.8063 55 30 55C16.1937 55 5 43.8063 5 30C5 16.1937 16.1937 5 30 5C43.8063 5 55 16.1937 55 30Z" fill="url(#paint0_linear_70849_6)"/>
<path opacity="0.05" d="M12.6487 29.3323C22.8425 24.7136 34.815 19.7023 36.6587 18.9773C40.7237 17.3786 42.4962 19.0123 42.2187 21.6186C41.8775 24.8123 40.26 34.1061 39.265 40.7648C38.6825 44.6611 36.5725 45.8548 34.1912 44.3436C32.385 43.1973 26.175 39.1311 24.5412 37.7411C23.4275 36.7936 22.6512 35.7311 23.4412 34.6486C23.6725 34.3323 24.2637 33.6948 24.5925 33.3773C26.2412 31.7798 26.0187 31.4361 24.025 32.8623C23.7875 33.0323 22.41 34.0311 21.8437 34.4086C20.4562 35.3336 19.18 35.3836 17.0162 34.6486C15.2462 34.0473 13.5462 33.5836 12.4737 33.1198C10.9925 32.4786 10.425 30.3398 12.6487 29.3323Z" fill="black"/>
<path opacity="0.07" d="M13.545 29.4888C23.01 25.2575 34.65 20.4088 36.3525 19.7225C40.4325 18.075 41.9337 19.0525 41.495 22.2363C41.0875 25.1838 39.6412 34.3038 38.6275 40.4175C38.03 44.0163 36.285 44.8088 34.0125 43.3388C32.5887 42.4213 26.8587 38.6463 25.4687 37.5475C24.3937 36.6988 23.28 35.7188 24.5812 34.3C25.0162 33.8263 27.4187 31.5075 29.215 29.7825C30.2562 28.7813 29.885 28.2875 28.6287 29.1475C26.325 30.7263 22.5562 33.225 21.8837 33.6788C20.6025 34.5413 19.3987 34.7488 17.3037 34.09C15.6525 33.57 14.0575 33.0663 13.2262 32.7425C11.3687 32.0225 11.3437 30.4725 13.545 29.4888Z" fill="black"/>
<path d="M14.4413 29.6462C23.1788 25.8024 34.485 21.1162 36.0463 20.4674C40.14 18.7699 41.3963 19.0949 40.77 22.8549C40.32 25.5574 39.0225 34.5037 37.9875 40.0724C37.3738 43.3749 35.9963 43.7662 33.8313 42.3374C32.79 41.6499 27.5338 38.1737 26.3925 37.3574C25.3513 36.6137 23.915 35.7187 25.7163 33.9562C26.3575 33.3287 30.5588 29.3162 33.8325 26.1937C34.2613 25.7837 33.7225 25.1099 33.2275 25.4387C28.815 28.3649 22.6975 32.4262 21.9188 32.9549C20.7425 33.7537 19.6125 34.1199 17.585 33.5374C16.0525 33.0974 14.5563 32.5724 13.9738 32.3724C11.73 31.6024 12.2625 30.6049 14.4413 29.6462Z" fill="white"/>
<defs>
<linearGradient id="paint0_linear_70849_6" x1="12.3225" y1="12.3225" x2="47.6775" y2="47.6775" gradientUnits="userSpaceOnUse">
<stop stop-color="#C89AFC"/>
<stop offset="1" stop-color="#7C6AFA"/>
</linearGradient>
</defs>
</svg>
