<svg width="29" height="25" viewBox="0 0 29 25" fill="none" xmlns="http://www.w3.org/2000/svg">
<path d="M2.44126 10.6462C11.1788 6.8024 22.485 2.11615 24.0463 1.4674C28.14 -0.230095 29.3963 0.0949048 28.77 3.8549C28.32 6.5574 27.0225 15.5037 25.9875 21.0724C25.3738 24.3749 23.9963 24.7662 21.8313 23.3374C20.79 22.6499 15.5338 19.1737 14.3925 18.3574C13.3513 17.6137 11.915 16.7187 13.7163 14.9562C14.3575 14.3287 18.5588 10.3162 21.8325 7.19365C22.2613 6.78365 21.7225 6.1099 21.2275 6.43865C16.815 9.3649 10.6975 13.4262 9.91876 13.9549C8.74251 14.7537 7.61251 15.1199 5.58501 14.5374C4.05251 14.0974 2.55626 13.5724 1.97376 13.3724C-0.269988 12.6024 0.262513 11.6049 2.44126 10.6462Z" fill="white"/>
</svg>
